<svg width="115" height="115" viewBox="0 0 115 115" fill="none" xmlns="http://www.w3.org/2000/svg">
<mask id="mask0_142_7" style="mask-type:alpha" maskUnits="userSpaceOnUse" x="0" y="0" width="115" height="115">
<rect width="115" height="115" rx="16" fill="#D9D9D9"/>
</mask>
<g mask="url(#mask0_142_7)">
<g filter="url(#filter0_d_142_7)">
<path d="M39 89V77.48C41.88 77.48 44.55 76.97 47.01 75.95C49.47 74.93 51.6 73.52 53.4 71.72C55.26 69.92 56.7 67.82 57.72 65.42C58.74 62.96 59.25 60.32 59.25 57.5C59.25 54.68 58.74 52.07 57.72 49.67C56.7 47.21 55.26 45.08 53.4 43.28C51.6 41.48 49.47 40.07 47.01 39.05C44.55 38.03 41.88 37.52 39 37.52V26C45.42 26 51.09 27.35 56.01 30.05C60.99 32.75 64.86 36.47 67.62 41.21C70.44 45.89 71.85 51.32 71.85 57.5C71.85 63.62 70.44 69.05 67.62 73.79C64.8 78.53 60.93 82.25 56.01 84.95C51.09 87.65 45.42 89 39 89ZM25.95 89V77.48H39V89H25.95ZM18.84 89V26H31.17V89H18.84ZM25.95 37.52V26H39V37.52H25.95ZM72.3176 90.08C66.1976 90.08 60.7676 88.7 56.0276 85.94C51.2876 83.12 47.5676 79.28 44.8676 74.42C42.1676 69.5 40.8176 63.86 40.8176 57.5C40.8176 51.14 42.1676 45.53 44.8676 40.67C47.5676 35.75 51.2576 31.91 55.9376 29.15C60.6776 26.33 66.1076 24.92 72.2276 24.92C76.5476 24.92 80.5676 25.7 84.2876 27.26C88.0076 28.76 91.2476 30.89 94.0076 33.65C96.8276 36.35 98.9876 39.47 100.488 43.01L89.0576 47.24C88.0376 45.02 86.6876 43.1 85.0076 41.48C83.3276 39.8 81.4076 38.51 79.2476 37.61C77.0876 36.65 74.7476 36.17 72.2276 36.17C68.5676 36.17 65.2976 37.1 62.4176 38.96C59.5976 40.76 57.3776 43.25 55.7576 46.43C54.1976 49.61 53.4176 53.3 53.4176 57.5C53.4176 61.7 54.2276 65.42 55.8476 68.66C57.4676 71.84 59.7176 74.36 62.5976 76.22C65.4776 78.02 68.7776 78.92 72.4976 78.92C75.0776 78.92 77.4176 78.44 79.5176 77.48C81.6776 76.46 83.5676 75.08 85.1876 73.34C86.8676 71.6 88.2176 69.59 89.2376 67.31L100.668 71.45C99.1676 75.11 97.0076 78.35 94.1876 81.17C91.4276 83.99 88.1876 86.18 84.4676 87.74C80.7476 89.3 76.6976 90.08 72.3176 90.08Z" fill="white"/>
</g>
</g>
<defs>
<filter id="filter0_d_142_7" x="18.84" y="24.92" width="86.8276" height="70.1599" filterUnits="userSpaceOnUse" color-interpolation-filters="sRGB">
<feFlood flood-opacity="0" result="BackgroundImageFix"/>
<feColorMatrix in="SourceAlpha" type="matrix" values="0 0 0 0 0 0 0 0 0 0 0 0 0 0 0 0 0 0 127 0" result="hardAlpha"/>
<feOffset dx="5" dy="5"/>
<feComposite in2="hardAlpha" operator="out"/>
<feColorMatrix type="matrix" values="0 0 0 0 0.619608 0 0 0 0 0.294118 0 0 0 0 0.964706 0 0 0 1 0"/>
<feBlend mode="normal" in2="BackgroundImageFix" result="effect1_dropShadow_142_7"/>
<feBlend mode="normal" in="SourceGraphic" in2="effect1_dropShadow_142_7" result="shape"/>
</filter>
</defs>
</svg>
